<?xml version="1.0" standalone="no"?>
<svg version="1.0" xmlns="http://www.w3.org/2000/svg"
 width="6827.000000pt" height="11637.000000pt" viewBox="0 0 6827.000000 11637.000000"
 preserveAspectRatio="xMidYMid meet">

<g transform="translate(0.000000,11637.000000) scale(0.100000,-0.100000)" stroke="none">
<path id="shape-mobile-1" x-bind="shapeHandler" class="header-shape" d="M59175 116363 c-224 -47 -432 -287 -492 -567 -29 -137 -9 -233 105
-516 80 -199 186 -476 223 -585 31 -91 34 -110 34 -215 -1 -112 -2 -119 -52
-265 -65 -188 -95 -310 -127 -500 -32 -195 -59 -277 -167 -518 -49 -108 -89
-201 -89 -207 0 -5 -34 -50 -76 -99 -56 -67 -89 -120 -128 -203 -92 -196 -158
-368 -168 -443 -11 -81 -7 -74 -136 -242 -116 -152 -269 -314 -361 -382 -37
-28 -148 -93 -246 -147 -99 -53 -218 -122 -265 -152 -98 -65 -212 -174 -260
-250 -32 -50 -42 -57 -209 -144 -212 -110 -323 -177 -586 -358 -227 -154 -271
-183 -515 -335 -194 -121 -258 -178 -298 -263 -40 -87 -37 -157 10 -254 89
-178 299 -299 468 -268 84 15 284 40 288 35 2 -2 -16 -35 -41 -73 -50 -77
-111 -137 -402 -398 -252 -226 -311 -275 -357 -302 -21 -12 -54 -32 -75 -44
-35 -21 -36 -21 -31 -2 3 10 24 80 47 154 98 320 104 494 27 875 -55 271 -97
441 -131 531 -45 120 -197 314 -341 435 -134 113 -220 163 -362 210 -70 23
-269 92 -442 154 -343 123 -410 141 -500 132 -79 -9 -139 -33 -283 -115 -67
-38 -214 -117 -327 -176 -300 -155 -327 -184 -435 -448 -34 -84 -128 -315
-210 -513 -81 -198 -179 -445 -217 -550 -38 -104 -75 -209 -84 -232 -19 -54
-86 -128 -136 -154 -24 -12 -78 -25 -132 -31 -240 -27 -301 -56 -301 -145 0
-54 31 -124 95 -213 21 -30 62 -100 90 -155 50 -98 51 -101 38 -140 -12 -36
-16 -40 -52 -43 -33 -3 -62 11 -230 109 -105 61 -263 157 -351 212 -236 148
-339 189 -507 202 -178 14 -240 36 -523 183 -101 52 -260 40 -490 -36 -121
-40 -501 -223 -552 -266 -18 -15 -41 -47 -52 -71 -24 -54 -75 -111 -160 -177
-36 -29 -109 -89 -161 -133 -165 -141 -256 -200 -361 -234 -48 -15 -83 -54
-109 -120 -52 -134 -147 -232 -445 -458 -110 -83 -243 -189 -295 -235 -141
-124 -175 -141 -342 -178 -118 -26 -182 -55 -256 -118 -85 -72 -150 -100 -257
-113 -112 -12 -180 -37 -274 -98 -106 -70 -167 -95 -313 -131 -112 -27 -349
-109 -409 -140 -44 -24 -101 -86 -139 -149 -47 -81 -69 -102 -143 -131 -92
-36 -183 -108 -325 -255 -73 -76 -159 -160 -192 -186 -118 -94 -291 -175 -491
-229 -156 -42 -218 -74 -330 -168 -157 -132 -243 -230 -296 -339 -34 -71 -53
-98 -76 -109 -45 -24 -121 -98 -207 -204 -43 -52 -94 -111 -114 -130 -50 -47
-90 -112 -121 -195 -14 -37 -35 -81 -46 -97 -22 -30 -198 -139 -429 -263 -178
-96 -250 -146 -323 -225 -67 -72 -102 -129 -134 -219 -14 -36 -40 -102 -60
-145 -35 -77 -35 -80 -23 -132 7 -29 10 -67 6 -85 -7 -39 -127 -235 -309 -508
-139 -209 -159 -246 -150 -280 10 -39 215 -123 334 -137 54 -6 56 -5 110 38
30 24 72 71 94 105 22 34 78 121 124 193 46 72 124 186 175 253 l91 122 8 -40
c5 -22 11 -156 15 -297 7 -243 8 -259 28 -278 12 -12 37 -25 56 -29 l35 -8
102 307 c56 168 111 320 121 338 11 17 31 34 45 38 31 8 247 -39 324 -69 49
-20 60 -31 112 -107 71 -105 115 -140 175 -140 37 0 51 6 85 38 23 20 65 73
94 117 35 55 73 97 118 133 77 62 123 121 164 212 45 98 105 139 208 140 98 1
191 40 271 113 45 41 65 72 119 182 89 182 151 233 343 285 55 15 105 37 150
67 77 50 157 77 257 88 162 16 216 39 250 105 41 81 110 132 251 185 37 14 91
43 118 63 151 113 179 127 271 137 145 15 291 78 392 170 33 29 131 102 218
161 190 128 296 207 383 286 80 73 165 120 310 175 121 46 141 49 189 33 27
-10 36 -25 80 -138 75 -187 77 -201 63 -410 -13 -203 -4 -404 31 -682 33 -258
13 -348 -118 -543 -41 -62 -92 -146 -114 -189 -91 -181 -179 -516 -179 -688 0
-90 35 -365 50 -390 5 -8 20 -38 34 -67 34 -73 74 -128 172 -241 47 -53 109
-133 138 -177 103 -154 209 -250 384 -349 120 -67 177 -125 217 -221 102 -240
233 -461 395 -665 166 -208 715 -739 906 -875 96 -69 348 -214 709 -408 138
-75 309 -170 380 -212 239 -140 520 -275 850 -409 166 -67 221 -105 337 -236
118 -132 297 -303 401 -384 203 -158 532 -338 758 -415 235 -80 469 -112 671
-92 156 15 218 33 328 96 75 43 110 56 163 64 78 11 95 21 188 105 99 89 167
138 439 314 270 174 355 234 600 422 91 69 212 160 270 201 138 97 244 203
315 314 32 50 101 135 154 190 321 335 423 492 452 703 17 119 -1 222 -74 427
-26 70 -67 292 -67 357 0 44 41 125 86 172 56 58 80 52 177 -46 216 -216 380
-318 1107 -688 256 -130 549 -285 652 -343 383 -217 505 -275 828 -392 357
-129 671 -216 1003 -279 l188 -36 207 6 c305 9 553 -21 914 -112 75 -19 157
-34 182 -34 48 0 56 6 138 102 l23 28 155 -64 c85 -35 193 -82 240 -104 47
-22 110 -45 140 -52 164 -38 270 -135 381 -350 80 -156 193 -240 241 -180 12
15 18 39 18 74 0 103 -19 178 -72 283 l-51 102 12 57 c16 82 14 170 -9 333
-22 151 -32 181 -77 222 -15 15 -183 101 -373 193 -190 91 -349 174 -355 183
-27 46 -53 61 -126 73 -235 38 -436 84 -569 131 -80 28 -172 59 -206 68 -127
38 -189 91 -271 230 -106 181 -198 247 -309 222 -50 -11 -53 -11 -215 53 -320
125 -374 157 -500 298 -236 262 -310 325 -504 434 -183 103 -343 211 -411 279
-46 45 -72 83 -104 150 -55 117 -88 163 -180 257 -41 42 -87 90 -102 106 -32
35 -65 43 -121 30 -83 -18 -108 -5 -258 137 l-83 77 19 34 c30 57 106 119 203
167 142 70 222 140 310 268 61 90 128 130 247 149 42 7 116 31 185 61 286 125
447 166 700 179 197 9 254 26 378 106 108 70 169 101 229 114 61 14 93 35 93
61 0 39 29 75 82 104 29 16 130 74 223 130 189 113 440 250 599 326 76 36 135
56 220 74 131 27 230 70 317 137 96 74 212 170 310 256 157 139 294 225 477
302 119 49 179 91 310 213 95 89 102 93 227 117 91 18 159 47 238 100 90 60
146 119 371 393 98 119 183 217 188 217 14 0 66 -121 83 -193 42 -179 2 -313
-114 -371 -76 -39 -135 -100 -222 -229 -45 -67 -95 -136 -111 -153 -40 -43
-37 -92 7 -113 29 -14 34 -12 144 44 123 64 203 129 400 326 195 195 295 346
360 544 45 139 57 220 42 296 -6 30 -18 88 -26 129 -30 151 -19 191 80 268 28
21 97 90 155 153 129 139 637 645 703 699 91 75 153 72 297 -10 102 -59 317
-150 355 -150 46 0 78 46 114 167 19 59 40 120 47 135 22 42 73 96 130 139 86
63 82 85 -28 160 -64 44 -82 70 -74 104 3 13 69 83 146 157 162 153 244 249
301 354 22 40 54 84 69 98 55 46 147 43 301 -9 114 -39 145 -32 190 42 12 21
74 119 138 217 116 180 161 275 138 287 -7 4 -48 14 -92 24 -44 9 -85 20 -92
24 -23 12 31 102 191 316 171 228 227 328 252 446 35 165 -30 455 -143 638
-51 83 -184 220 -342 353 -214 179 -648 490 -738 529 -120 51 -243 46 -356
-14 -87 -46 -237 -211 -408 -451 -80 -112 -89 -130 -131 -271 -54 -180 -85
-246 -192 -407 -100 -152 -190 -315 -235 -429 -23 -57 -116 -187 -224 -314
-33 -38 -93 -120 -132 -180 -77 -120 -134 -176 -199 -198 -22 -8 -60 -33 -84
-56 -116 -112 -287 -253 -351 -291 -40 -24 -87 -61 -104 -83 -39 -48 -99 -79
-207 -107 -179 -46 -304 -109 -410 -206 -71 -67 -114 -124 -166 -223 -22 -40
-54 -85 -71 -100 -18 -14 -200 -127 -404 -251 -205 -124 -375 -232 -379 -240
-45 -97 -39 -92 -165 -155 -123 -62 -251 -140 -412 -251 -50 -35 -96 -64 -101
-64 -5 0 -20 15 -33 34 l-25 35 -76 -65 c-43 -35 -93 -89 -113 -118 -48 -72
-90 -92 -252 -117 -200 -30 -269 -57 -362 -143 -53 -49 -75 -60 -317 -155
-142 -57 -358 -151 -479 -210 -216 -106 -224 -111 -470 -296 -416 -314 -493
-357 -640 -358 -60 0 -101 6 -162 26 -120 38 -204 50 -313 44 -114 -6 -246
-46 -349 -106 -182 -107 -273 -144 -470 -192 -165 -40 -381 -112 -599 -201
-216 -86 -296 -126 -550 -272 -415 -239 -442 -244 -728 -151 -92 30 -173 60
-178 65 -6 6 0 31 19 70 16 33 27 62 24 64 -2 2 -137 65 -299 140 -162 75
-296 140 -298 145 -6 18 59 133 100 177 27 30 70 59 122 84 54 26 97 55 129
88 68 71 105 87 207 88 47 0 104 4 126 8 l41 7 -4 67 c-7 98 11 119 162 195
110 56 128 70 220 163 59 60 135 124 186 157 188 123 426 362 569 573 102 149
184 243 252 290 39 27 54 54 220 390 98 199 183 384 188 412 14 63 60 136 102
162 18 11 60 29 94 40 104 35 141 87 279 395 99 219 154 326 218 419 184 268
294 432 442 666 93 146 201 308 240 360 39 52 91 133 115 179 33 63 55 92 89
117 115 84 546 215 936 283 288 51 480 115 734 247 175 90 327 190 375 245 65
77 104 192 91 274 -3 24 -17 65 -31 92 -17 32 -30 81 -40 146 -20 146 -47 240
-130 451 -42 105 -94 242 -115 304 -22 62 -75 185 -119 272 -209 417 -366 912
-435 1370 -25 167 -50 244 -134 420 -44 91 -104 217 -133 280 -66 138 -312
515 -426 650 -98 117 -969 983 -1008 1003 -34 17 -90 26 -119 20z m-4076
-7865 c-32 -61 -86 -136 -132 -186 -53 -56 -164 -138 -174 -128 -10 10 7 53
39 102 21 30 78 82 153 140 66 51 121 93 123 93 1 1 -3 -9 -9 -21z m1401
-8156 c7 -109 9 -244 5 -322 -16 -323 -60 -418 -260 -575 -93 -73 -166 -149
-232 -244 -175 -251 -369 -458 -639 -683 -200 -166 -474 -348 -679 -450 -44
-22 -104 -58 -133 -80 -195 -146 -404 -172 -722 -90 -485 125 -980 342 -1285
564 -66 48 -80 68 -47 68 34 0 1043 180 1209 216 377 81 625 195 938 430 77
58 312 232 522 386 446 327 645 482 1023 790 257 210 275 224 282 201 3 -13
12 -108 18 -211z"/>
<path id="shape-mobile-2" x-bind="shapeHandler" class="header-shape" d="M30945 92627 c-28 -15 -56 -47 -93 -102 -70 -107 -127 -163 -243
-241 -280 -187 -393 -426 -419 -884 -6 -102 -16 -255 -22 -340 -19 -242 -17
-322 12 -410 22 -66 25 -92 25 -220 -1 -118 -5 -160 -23 -228 -44 -160 -92
-311 -172 -538 -101 -282 -145 -435 -171 -582 -21 -127 -26 -331 -8 -428 47
-268 205 -481 443 -598 79 -40 291 -119 731 -276 66 -24 122 -44 123 -46 2 -1
-8 -22 -22 -47 -31 -53 -34 -117 -8 -167 21 -41 423 -551 568 -720 127 -149
406 -428 514 -514 166 -132 316 -223 520 -315 143 -65 300 -155 405 -234 166
-123 251 -220 615 -704 507 -672 637 -835 995 -1253 342 -398 734 -834 1151
-1280 314 -334 1243 -1245 1329 -1302 88 -57 169 -98 265 -132 219 -79 365
-202 450 -380 49 -104 63 -183 56 -321 -13 -279 49 -440 254 -660 117 -126
181 -216 236 -330 52 -109 72 -184 90 -337 7 -65 25 -153 39 -195 50 -148 194
-393 360 -613 163 -215 250 -375 355 -650 59 -154 93 -232 313 -725 217 -486
330 -871 331 -1130 1 -115 0 -123 -31 -187 -44 -94 -107 -157 -242 -242 -413
-261 -821 -448 -1249 -572 -327 -95 -606 -155 -1272 -275 -877 -158 -1201
-230 -1535 -342 -332 -112 -550 -227 -830 -436 -172 -128 -411 -364 -508 -501
-74 -104 -193 -337 -395 -775 -801 -1732 -1071 -2261 -1995 -3905 -187 -333
-395 -710 -463 -838 -200 -376 -340 -614 -616 -1047 -214 -335 -279 -452 -286
-510 -4 -43 -2 -48 35 -83 49 -47 178 -102 393 -167 140 -42 353 -125 373
-144 28 -28 -339 -265 -668 -431 -450 -227 -843 -363 -1220 -420 -195 -29
-329 -60 -630 -146 -321 -92 -338 -98 -370 -135 -68 -82 19 -234 184 -320 42
-22 103 -59 136 -82 98 -69 146 -81 570 -147 188 -29 244 -44 338 -91 275
-139 526 -219 798 -255 148 -19 404 -15 544 10 415 74 978 277 1930 696 116
51 331 141 479 201 148 60 290 121 315 136 25 14 77 58 115 96 58 61 78 91
136 211 107 222 140 339 140 500 0 94 16 161 68 281 78 181 85 244 71 630 -3
98 -1 115 19 161 15 32 47 74 85 110 l62 59 159 405 c183 467 265 666 404 980
278 631 460 1030 622 1360 257 526 314 667 389 961 20 81 40 133 65 171 79
125 99 267 62 466 -25 138 -6 192 87 238 88 45 104 61 145 147 63 131 138 187
283 207 72 10 99 9 319 -11 58 -5 447 -23 865 -39 1588 -62 1953 -88 2323
-165 65 -13 207 -34 317 -45 247 -26 360 -43 490 -76 76 -20 142 -28 280 -35
99 -5 205 -14 235 -20 65 -13 149 -51 190 -86 30 -25 31 -25 130 -14 95 10
104 10 187 -15 166 -48 282 -57 658 -50 450 8 674 33 969 107 172 44 290 82
471 156 155 63 275 96 499 138 64 12 110 28 170 60 115 62 228 97 486 150 124
25 277 63 341 85 l116 38 664 27 c365 14 711 25 769 23 101 -3 105 -4 108 -26
2 -15 -43 -109 -126 -265 -159 -297 -248 -475 -275 -547 -15 -42 -20 -86 -23
-187 -3 -155 -8 -168 -99 -265 -94 -99 -103 -149 -50 -279 l24 -60 -42 6 c-69
9 -395 35 -441 35 -71 0 -143 -27 -186 -70 -22 -22 -60 -81 -86 -131 -25 -50
-83 -155 -130 -232 -98 -164 -105 -193 -51 -244 59 -58 218 -115 407 -147 188
-31 589 -46 706 -25 171 30 303 98 463 238 130 114 193 159 351 250 181 105
200 123 262 249 62 127 127 202 175 202 44 0 73 -28 182 -174 168 -226 263
-314 500 -461 122 -76 177 -96 291 -107 l35 -3 22 265 c12 146 29 356 37 468
22 298 35 315 258 333 398 31 483 41 564 65 150 43 265 114 373 230 81 87 132
166 236 367 141 272 191 463 167 638 -7 46 -13 93 -15 104 -2 18 11 23 107 47
138 35 301 48 452 37 243 -18 356 39 496 251 30 47 97 135 148 195 287 343
471 722 559 1148 17 81 40 166 51 187 25 48 100 137 245 288 l109 113 -23 77
c-25 85 -52 129 -88 143 -13 5 -67 9 -119 9 -139 0 -189 32 -269 170 -20 35
-48 77 -61 93 -20 24 -24 39 -24 96 0 56 6 79 31 129 59 118 146 155 514 216
140 24 152 28 178 56 33 37 34 55 2 160 -14 46 -25 85 -25 87 0 2 49 3 109 3
l110 0 46 75 47 75 73 -66 74 -65 15 29 c8 16 52 78 97 138 45 60 93 134 107
163 47 101 37 269 -21 394 -14 29 -57 88 -97 132 -88 98 -102 123 -110 200
-10 85 -34 131 -110 204 l-67 65 44 99 c24 54 41 102 38 106 -2 5 -26 14 -52
21 -103 28 -132 53 -133 116 0 51 -34 86 -110 113 -30 10 -118 46 -195 80
-170 75 -271 107 -530 165 -110 25 -295 68 -410 95 -298 71 -381 84 -525 84
-148 0 -240 -18 -390 -75 -97 -37 -329 -97 -840 -218 -113 -26 -217 -53 -232
-59 -45 -17 -104 -78 -148 -154 -63 -106 -103 -151 -182 -204 -149 -100 -324
-288 -535 -573 -51 -69 -106 -133 -122 -143 -46 -27 -135 -21 -366 24 -398 76
-412 78 -570 79 -160 0 -225 -8 -515 -63 -266 -51 -420 -68 -604 -68 -179 0
-257 9 -426 51 -168 42 -274 54 -430 47 -153 -6 -314 -32 -516 -82 -132 -33
-141 -36 -174 -74 -38 -43 -77 -65 -130 -74 -50 -9 -270 17 -307 36 -50 26
-114 107 -193 247 -77 135 -100 162 -205 235 -32 22 -114 101 -184 175 -169
181 -235 243 -306 290 -33 22 -70 47 -83 55 -12 9 -54 63 -92 121 -39 57 -145
191 -236 297 -264 308 -325 392 -679 942 -441 686 -857 1214 -1495 1895 -155
165 -659 712 -780 846 -33 36 -77 72 -108 88 -129 65 -177 142 -221 360 -16
80 -41 170 -54 200 -34 74 -94 137 -169 176 -133 69 -166 123 -180 289 -18
235 -61 388 -170 604 -83 167 -232 414 -276 460 -20 21 -84 66 -142 100 -178
105 -315 261 -369 420 -11 32 -28 99 -37 150 -40 219 -95 329 -379 762 -137
209 -252 334 -371 403 -130 75 -205 178 -294 402 -106 267 -201 407 -740 1090
-894 1134 -1097 1375 -2501 2971 -318 361 -596 672 -619 691 -64 56 -105 56
-169 2 -58 -50 -560 -653 -760 -914 -135 -175 -227 -269 -444 -454 -98 -83
-197 -167 -219 -186 l-40 -35 -30 35 c-141 164 -291 373 -385 535 -22 39 -91
166 -153 283 -61 118 -145 271 -187 340 -155 263 -296 576 -420 936 -47 136
-56 173 -57 237 -1 72 1 81 47 170 62 121 70 192 38 347 -27 127 -28 166 -7
263 19 90 12 141 -34 282 -35 106 -81 170 -137 193 -49 21 -122 17 -168 -9z"/>
<path id="shape-mobile-3" x-bind="shapeHandler" class="header-shape" d="M33455 53096 c-42 -18 -57 -39 -110 -141 -106 -209 -180 -529 -205
-895 -9 -134 -30 -290 -47 -340 -7 -23 -53 36 -144 188 -99 162 -169 241 -252
282 -34 16 -77 33 -95 36 l-34 7 7 -49 c12 -87 24 -121 227 -659 110 -291 221
-586 246 -655 l46 -125 4 -200 c7 -372 -23 -694 -79 -838 -11 -28 -92 -196
-179 -372 -182 -366 -216 -457 -230 -612 -14 -145 -32 -240 -81 -418 -36 -131
-42 -169 -48 -296 -9 -183 -27 -227 -132 -321 -167 -150 -243 -293 -284 -538
-21 -126 -58 -263 -89 -334 -14 -32 -74 -126 -133 -210 -136 -192 -261 -319
-391 -396 -51 -30 -143 -92 -205 -138 -227 -169 -351 -242 -473 -278 -82 -24
-209 -22 -299 5 -129 39 -234 23 -343 -50 -34 -22 -123 -101 -198 -175 -75
-74 -147 -137 -161 -140 -13 -4 -37 -1 -53 6 -16 7 -123 108 -238 224 -215
219 -237 249 -261 352 -28 116 -68 141 -192 118 -144 -26 -196 -14 -278 61
-57 52 -103 75 -150 75 -43 0 -154 -67 -719 -437 -336 -220 -560 -360 -589
-369 -86 -26 -100 -9 -148 174 -38 147 -61 199 -115 258 -21 23 -41 56 -45 75
-11 51 -103 257 -142 318 -19 29 -81 114 -138 190 -156 206 -205 308 -220 461
-9 94 -40 209 -92 339 -97 246 -161 359 -250 442 -85 79 -507 288 -738 365
-194 64 -257 75 -460 81 -285 8 -287 8 -820 -211 -130 -53 -99 -23 -543 -519
l-292 -325 -24 -114 c-72 -334 -81 -609 -26 -865 10 -47 12 -49 71 -72 83 -32
114 -62 159 -150 56 -112 61 -140 63 -369 2 -194 3 -210 25 -254 l23 -47 -25
-43 c-31 -54 -99 -256 -121 -363 -10 -47 -20 -159 -24 -275 -9 -228 -21 -274
-124 -475 -87 -169 -55 -158 -487 -166 -417 -8 -423 -9 -565 -124 -38 -31
-102 -72 -142 -92 -60 -30 -85 -36 -159 -41 -76 -4 -98 -10 -168 -45 -66 -33
-95 -42 -165 -48 -141 -13 -188 -45 -306 -210 -42 -59 -86 -79 -201 -90 -191
-18 -344 -80 -471 -190 -115 -100 -149 -119 -212 -119 -35 0 -73 8 -101 21
-105 48 -189 43 -281 -16 -151 -96 -219 -108 -305 -54 -144 93 -229 95 -426
14 -177 -73 -271 -73 -359 1 -38 32 -46 34 -110 34 -83 0 -133 22 -178 77 -17
21 -49 62 -73 92 -121 153 -306 213 -760 246 -318 23 -450 58 -588 158 -105
76 -125 85 -240 103 -120 19 -687 190 -1142 344 -191 64 -316 101 -358 105
-125 13 -250 -28 -373 -123 -67 -51 -115 -68 -164 -56 -40 10 -400 154 -549
220 -208 91 -276 93 -410 11 -69 -42 -69 -42 -164 -41 -64 0 -122 8 -180 23
-204 54 -329 124 -481 269 -81 77 -123 110 -173 132 -161 73 -323 188 -599
423 -251 215 -415 321 -592 386 -108 39 -173 46 -261 28 -113 -24 -254 -106
-254 -148 0 -39 84 -81 189 -94 l54 -7 -113 -29 c-120 -31 -247 -86 -327 -140
-61 -42 -163 -138 -163 -154 0 -21 85 -92 119 -100 38 -8 89 8 150 47 69 43
158 67 337 88 168 19 196 18 228 -9 24 -21 49 -70 43 -85 -8 -20 -132 -80
-272 -131 -71 -26 -157 -61 -189 -77 -65 -33 -154 -112 -188 -165 -21 -35 -21
-35 -1 -61 39 -54 63 -57 160 -22 266 96 435 151 493 160 162 25 296 -43 366
-186 15 -30 25 -56 23 -58 -2 -2 -73 -29 -156 -59 -84 -31 -166 -63 -182 -72
-64 -32 -85 -91 -60 -164 14 -39 28 -39 139 -6 168 50 308 50 430 1 34 -14
105 -56 158 -95 88 -62 310 -198 484 -295 106 -59 221 -96 347 -113 197 -25
284 -70 458 -234 156 -147 218 -190 412 -285 240 -117 341 -187 571 -393 272
-243 457 -351 845 -491 260 -94 510 -194 935 -375 679 -288 1012 -414 1773
-671 660 -223 1049 -307 1547 -333 l165 -9 630 -162 c347 -89 659 -170 695
-181 93 -26 131 -62 190 -179 72 -140 151 -240 325 -413 231 -231 362 -373
399 -430 18 -29 88 -155 156 -282 67 -126 155 -286 195 -355 39 -69 98 -174
130 -235 32 -60 190 -339 350 -620 341 -595 322 -559 370 -700 131 -388 286
-697 454 -905 101 -125 141 -216 231 -531 32 -114 77 -250 99 -302 22 -52 50
-137 61 -188 44 -196 112 -350 236 -532 41 -60 75 -118 76 -130 0 -12 2 -58 3
-102 2 -96 18 -152 57 -200 29 -35 113 -85 142 -85 32 0 26 -23 -20 -73 -50
-55 -140 -186 -156 -227 -5 -14 -16 -61 -23 -106 -14 -86 -48 -165 -87 -201
-12 -12 -48 -33 -79 -48 -53 -24 -57 -28 -63 -68 -12 -79 -24 -101 -71 -130
-72 -46 -155 -145 -230 -276 -79 -137 -122 -184 -326 -354 -202 -169 -292
-267 -368 -399 -21 -38 -57 -78 -109 -121 -42 -36 -131 -120 -197 -188 -187
-193 -323 -385 -436 -614 -96 -197 -119 -327 -84 -478 8 -35 22 -135 30 -223
19 -198 21 -209 53 -319 38 -128 36 -237 -7 -410 -43 -177 -80 -351 -146 -694
-60 -314 -70 -392 -58 -431 4 -14 41 -55 82 -90 98 -86 125 -126 171 -255 22
-59 61 -142 87 -183 126 -203 367 -376 638 -458 79 -24 107 -27 230 -28 225
-1 299 27 590 217 330 215 334 217 556 173 212 -41 279 -46 710 -53 460 -6
465 -6 554 68 l50 41 70 -6 c39 -3 185 -26 325 -51 354 -63 457 -75 638 -75
168 1 309 20 438 59 l71 22 6 82 c4 45 4 132 0 192 -13 233 47 388 231 599 42
48 83 101 91 116 23 44 73 69 161 80 166 21 786 72 939 77 l160 5 29 -53 c106
-196 167 -238 274 -189 50 23 81 45 230 168 272 223 359 263 728 337 300 61
320 60 465 -11 63 -31 138 -74 167 -96 63 -47 105 -65 177 -79 59 -11 92 -6
799 112 198 33 417 65 487 71 161 14 318 1 482 -42 141 -36 222 -39 304 -9 47
18 73 38 143 109 96 100 156 140 285 194 145 61 217 95 268 128 l49 31 46 -16
c26 -8 100 -34 164 -56 408 -142 847 -154 1288 -36 540 145 927 215 1534 280
265 28 312 26 396 -20 200 -110 344 -167 504 -200 89 -18 107 -26 155 -68 87
-75 201 -130 340 -164 53 -13 126 -16 361 -17 336 -1 317 3 474 -98 247 -158
467 -198 736 -133 95 24 138 28 250 29 88 1 154 -4 190 -13 73 -19 210 -18
289 3 308 82 430 367 309 721 -75 220 -189 397 -372 580 -329 328 -743 528
-1427 690 -503 120 -983 248 -1363 365 -186 57 -275 73 -401 73 -186 0 -317
-49 -462 -173 -119 -102 -153 -110 -244 -62 -30 16 -85 41 -124 56 -38 15
-232 98 -430 184 l-360 158 2 44 c3 69 51 203 97 272 25 37 68 83 107 113 35
27 100 88 144 135 141 150 206 209 261 236 38 18 64 41 86 73 17 25 46 67 64
93 54 79 75 150 83 278 l8 115 88 195 c48 107 101 226 118 263 l31 69 -92 86
-92 87 33 135 c40 159 53 188 117 256 61 65 111 143 138 216 26 70 45 215 36
275 -5 38 -2 53 26 109 47 91 49 167 15 399 -24 162 -82 485 -88 491 -9 9
-2357 248 -2942 299 -33 3 -235 7 -450 10 -214 3 -428 9 -475 15 -127 15 -345
12 -446 -5 -48 -9 -142 -31 -209 -51 -139 -40 -413 -94 -635 -124 -194 -26
-221 -34 -465 -120 -163 -59 -213 -72 -280 -77 l-82 -6 -7 144 c-4 79 -17 196
-28 259 -14 79 -21 157 -21 250 0 119 5 158 42 335 43 209 69 280 120 329 l29
28 39 -25 c83 -52 271 -93 356 -76 54 10 63 15 249 141 134 91 370 208 558
277 74 27 264 88 422 135 345 104 487 155 677 247 201 97 326 181 442 298 87
88 102 108 149 207 46 97 107 197 185 303 28 39 55 119 55 165 0 42 -14 89
-115 386 -182 534 -673 1591 -904 1945 -61 94 -166 257 -234 363 -543 857
-635 968 -1302 1568 -165 149 -315 287 -332 308 -42 47 -44 89 -5 139 144 188
699 757 1558 1598 289 284 406 428 518 641 68 128 97 213 246 710 66 218 144
461 174 540 86 227 105 293 132 453 34 201 65 332 122 505 l48 145 -5 625 -6
625 28 62 29 62 2 333 c3 295 6 346 25 448 19 99 22 147 21 356 0 261 12 384
54 553 41 159 71 234 208 509 115 229 132 270 135 320 4 64 -20 119 -68 155
l-27 19 -43 -47 c-61 -66 -85 -101 -189 -270 -113 -184 -142 -220 -191 -245
-48 -25 -54 -25 -91 2 -44 30 -88 105 -88 147 0 20 43 210 96 422 103 413 105
428 61 482 -22 28 -24 29 -67 17 -81 -22 -122 -77 -229 -313 -52 -114 -95
-206 -97 -205 -1 2 1 51 6 109 9 113 22 170 75 344 58 190 66 227 54 268 -13
48 -34 67 -72 67 -67 -1 -111 -32 -170 -121 -140 -212 -208 -419 -252 -762 -9
-71 -21 -141 -26 -155 -12 -31 -51 -92 -60 -92 -3 0 -13 32 -24 71 -16 63 -17
96 -12 278 8 239 21 338 77 589 34 154 39 189 30 216 -17 51 -67 68 -125 42z
m495 -1001 c0 -63 -4 -115 -8 -115 -15 0 -42 70 -42 107 0 32 34 123 46 123 2
0 4 -52 4 -115z"/>
<path id="shape-mobile-4" x-bind="shapeHandler" class="header-shape" d="M324 17781 c-73 -54 -255 -284 -289 -364 -8 -18 -19 -87 -24 -153
-37 -415 25 -777 185 -1094 78 -154 167 -274 339 -455 400 -424 1143 -1273
1237 -1415 66 -100 120 -215 153 -325 14 -49 37 -116 50 -148 13 -31 152 -274
308 -540 353 -598 383 -651 403 -711 17 -49 16 -81 -6 -181 -13 -57 -6 -140
16 -217 26 -88 215 -484 383 -803 87 -165 220 -419 296 -565 185 -357 294
-555 443 -805 249 -420 302 -528 401 -818 71 -205 115 -304 205 -455 92 -155
220 -321 366 -477 177 -189 212 -245 249 -405 57 -243 162 -450 312 -614 35
-38 117 -111 181 -162 199 -159 329 -300 511 -556 118 -166 172 -233 303 -379
254 -284 617 -571 1109 -879 116 -72 214 -135 218 -139 9 -9 -150 -344 -411
-868 -145 -292 -178 -368 -230 -525 -33 -101 -77 -257 -97 -348 -89 -408 -161
-593 -459 -1189 -72 -143 -113 -212 -159 -267 -145 -174 -143 -217 19 -384
l96 -99 -21 -188 c-12 -103 -21 -193 -21 -200 0 -6 46 -26 103 -43 263 -80
432 -136 551 -182 151 -58 226 -68 326 -45 36 9 207 77 380 152 946 410 1186
523 1593 746 111 62 364 194 562 295 l361 183 104 -136 c58 -75 109 -143 113
-150 5 -8 -53 -123 -165 -325 -95 -171 -174 -315 -176 -319 -2 -4 174 -66 390
-137 216 -72 465 -160 553 -198 399 -167 452 -182 685 -194 155 -8 201 -16
740 -126 704 -143 692 -141 781 -126 111 19 167 53 308 185 69 65 160 149 201
187 l75 67 85 -24 c47 -13 245 -73 440 -133 391 -121 611 -179 782 -210 622
-109 1097 9 1548 384 139 116 224 157 395 191 308 61 525 131 770 249 269 130
398 220 760 530 l230 197 111 -113 c61 -62 198 -219 305 -348 107 -129 239
-284 294 -345 257 -289 371 -478 445 -746 44 -161 78 -224 164 -307 69 -67
247 -192 294 -207 38 -11 77 4 138 56 32 28 124 89 204 137 225 135 281 184
442 392 199 258 408 397 683 454 39 8 95 24 126 35 31 10 83 25 115 31 113 23
176 75 235 192 51 101 219 381 248 411 64 70 112 72 317 16 219 -59 322 -112
451 -232 57 -53 160 -142 230 -200 71 -57 163 -136 206 -175 145 -132 286
-203 533 -268 217 -57 323 -48 495 42 210 111 388 292 492 499 107 214 155
513 136 835 -20 321 -96 660 -274 1225 -159 504 -205 730 -205 1015 0 138 17
304 36 354 5 13 39 -15 149 -123 172 -167 237 -206 345 -206 139 0 259 95 530
419 203 244 291 330 374 371 84 42 167 53 254 36 64 -12 228 -74 310 -115 83
-42 566 -353 768 -496 197 -138 258 -173 360 -208 241 -83 483 -36 707 135 92
71 234 217 318 329 156 207 256 394 423 790 143 342 238 548 377 824 136 270
202 387 392 697 445 723 611 1154 689 1783 21 166 17 722 -5 880 -52 359 -168
754 -302 1020 -76 150 -182 251 -304 287 -116 34 -325 13 -453 -45 -132 -60
-309 -198 -400 -311 -89 -111 -119 -160 -448 -731 -260 -453 -248 -436 -686
-962 -338 -405 -641 -781 -805 -998 -170 -225 -294 -337 -438 -396 -33 -13
-120 -55 -193 -92 -211 -109 -400 -170 -606 -197 -152 -20 -236 -19 -453 7
-271 32 -664 32 -836 0 -229 -42 -375 -27 -508 53 -83 50 -131 99 -245 250
-111 147 -325 385 -403 447 -132 105 -292 132 -467 79 -36 -10 -125 -35 -197
-55 -199 -53 -284 -102 -362 -207 l-27 -37 -405 149 c-615 227 -798 287 -906
299 -206 23 -486 -36 -713 -150 -173 -87 -212 -119 -824 -679 -359 -329 -538
-489 -981 -881 -176 -156 -359 -321 -407 -366 -55 -51 -115 -96 -160 -119
-169 -88 -333 -211 -568 -425 -245 -224 -237 -222 -428 -82 -154 113 -241 156
-526 257 -159 56 -278 111 -391 179 -170 103 -380 120 -593 49 -151 -50 -231
-99 -427 -263 -55 -46 -120 -92 -145 -103 -64 -29 -136 -27 -187 3 -54 33
-572 600 -757 828 l-98 122 135 168 c137 170 276 313 357 368 25 17 117 73
205 124 253 147 329 202 456 329 252 252 547 665 925 1293 186 310 260 425
429 670 68 99 84 160 65 255 l-13 67 111 220 c147 292 190 363 256 423 31 28
160 121 288 207 128 86 283 191 343 232 111 76 250 149 338 178 27 9 92 26
145 37 163 35 397 135 451 192 l34 36 -29 8 c-68 19 -167 6 -359 -47 -224 -62
-313 -72 -362 -41 -42 27 -80 98 -61 116 79 71 405 315 482 360 123 71 174
118 215 194 17 32 31 62 31 66 0 4 -19 4 -42 0 -84 -14 -206 -59 -373 -137
-176 -83 -279 -121 -353 -132 l-42 -6 37 33 c110 96 300 240 501 376 113 78
125 106 71 175 l-21 26 -394 -199 -395 -199 6 31 c24 114 160 296 311 414 110
87 144 143 144 236 0 38 0 39 -32 32 -65 -14 -184 -70 -267 -126 -162 -108
-270 -222 -445 -466 -48 -68 -90 -123 -93 -123 -3 0 -2 130 2 289 8 311 5 335
-42 399 -23 30 -77 72 -95 72 -4 0 -13 -24 -22 -52 -8 -29 -42 -139 -75 -244
-72 -230 -101 -341 -146 -565 -101 -503 -194 -723 -423 -1012 -38 -49 -112
-162 -163 -252 l-93 -162 -56 13 c-189 44 -296 20 -400 -89 -34 -35 -74 -95
-206 -302 -202 -320 -467 -722 -496 -753 -17 -18 -48 -42 -68 -52 -102 -52
-206 -166 -358 -391 -114 -168 -183 -225 -344 -283 -33 -12 -61 -33 -90 -68
-152 -178 -208 -218 -388 -274 -259 -81 -301 -97 -358 -133 -32 -21 -82 -65
-111 -98 -67 -76 -92 -90 -267 -147 -271 -88 -333 -100 -489 -101 -80 0 -198
8 -275 19 -178 24 -630 33 -807 17 -164 -16 -324 -44 -466 -81 -61 -17 -155
-42 -207 -56 -52 -13 -162 -36 -245 -50 -225 -38 -356 -87 -440 -164 -118
-109 -174 -124 -258 -71 -73 47 -87 85 -103 280 -8 90 -19 183 -25 205 -44
172 -238 725 -289 825 -16 31 -56 83 -90 116 -107 104 -166 204 -226 382 -71
214 -114 257 -509 518 -324 214 -398 270 -535 405 -110 108 -180 147 -281 156
-53 5 -76 2 -134 -18 -38 -14 -130 -46 -204 -71 -73 -26 -152 -57 -175 -71
-50 -29 -110 -93 -132 -139 -18 -37 -153 -123 -237 -151 -57 -19 -200 -36
-308 -36 -59 0 -81 -4 -97 -18 -11 -9 -106 -124 -211 -254 -106 -131 -194
-238 -196 -238 -32 0 -78 65 -315 438 -146 229 -348 541 -449 692 -102 151
-212 316 -245 365 -245 367 -515 901 -746 1479 -50 126 -99 245 -110 265 -24
48 -67 86 -110 99 -42 13 -351 18 -468 7 -66 -6 -91 -4 -125 9 -78 30 -51 -11
-622 931 -227 375 -339 570 -364 632 -52 133 -75 311 -76 593 -1 233 -1 237
-42 455 -104 541 -159 946 -169 1235 -3 91 -12 188 -20 215 -21 78 -81 125
-161 125 -81 0 -130 -49 -201 -198 l-37 -77 0 -305 c-1 -298 -2 -307 -24 -353
-27 -56 -69 -91 -143 -119 -149 -56 -376 -17 -516 90 -63 48 -353 514 -487
781 -42 85 -96 202 -120 260 -24 58 -75 178 -113 266 -38 88 -77 185 -88 215
-47 133 -191 193 -290 121z m21950 -12821 c120 -5 220 -10 222 -12 2 -2 11
-49 20 -103 19 -115 14 -248 -12 -335 -21 -71 -77 -179 -119 -227 l-33 -38
-43 21 c-24 12 -82 49 -129 83 -224 161 -405 176 -670 56 -52 -24 -123 -51
-158 -61 -60 -16 -63 -16 -76 2 -12 16 -10 23 19 59 19 22 100 105 182 185
102 100 157 162 177 200 44 82 74 118 124 147 60 35 101 43 197 37 44 -3 178
-9 299 -14z"/>
</g>
</svg>
